<?xml version="1.0" encoding="utf-8"?>
<!-- Generator: Adobe Illustrator 21.0.2, SVG Export Plug-In . SVG Version: 6.00 Build 0)  -->
<svg version="1.1" id="Layer_1" xmlns="http://www.w3.org/2000/svg" xmlns:xlink="http://www.w3.org/1999/xlink" x="0px" y="0px"
	 viewBox="0 0 579 92" style="enable-background:new 0 0 579 92;" xml:space="preserve">
<style type="text/css">
	.st0{fill:#FFFFFF;}
	.st1{fill:#5C6670;}
	.st2{fill:#FF8300;}
</style>
<rect x="15.4" y="13" class="st0" width="63" height="63"/>
<g>
	<g>
		<path class="st1" d="M120.4,63.5h-6V23.3h13.1c10.4,0,13.7,4.7,13.7,11.9c0,5.2-1.6,9-6.5,10.7l8.4,17.5h-7l-7.3-16.3h-8.4V63.5z
			 M120.4,41.7h7.9c5.6,0,6.3-3.2,6.3-6.4c0-3.3-0.8-6.4-6.3-6.4h-7.9V41.7z"/>
		<path class="st1" d="M170.4,45.4h-16.7V58h18.4v5.5h-24.4V23.3h24.4v5.5h-18.4v11.1h16.7V45.4z"/>
		<path class="st1" d="M207.6,23.3L194.9,64h-6.1L176,23.3h6.5l9.3,32.7l9.3-32.7H207.6z"/>
		<path class="st1" d="M210.6,43.4c0-11.4,2.6-20.7,15.5-20.7c12.9,0,15.5,9.4,15.5,20.7c0,11.4-2.6,20.7-15.5,20.7
			C213.2,64.1,210.6,54.7,210.6,43.4z M216.8,43.4c0,9.5,1.7,15.3,9.3,15.3c7.6,0,9.3-5.7,9.3-15.3c0-9.5-1.7-15.3-9.3-15.3
			C218.5,28.1,216.8,33.8,216.8,43.4z"/>
		<path class="st1" d="M253.6,58H271v5.5h-23.5V23.3h6V58z"/>
		<path class="st1" d="M275.4,50.8V23.3h6v27c0,7.6,5.3,8.4,8.6,8.4c3.3,0,8.6-0.8,8.6-8.4v-27h6v27.5c0,11.3-9.1,13.3-14.6,13.3
			C284.5,64.1,275.4,62.1,275.4,50.8z"/>
		<path class="st1" d="M325.4,28.8v34.7h-6V28.8H309v-5.5h26.9v5.5H325.4z"/>
		<path class="st1" d="M341.4,63.5V23.3h6v40.2H341.4z"/>
		<path class="st1" d="M354.3,43.4c0-11.4,2.6-20.7,15.5-20.7c12.9,0,15.5,9.4,15.5,20.7c0,11.4-2.6,20.7-15.5,20.7
			C356.9,64.1,354.3,54.7,354.3,43.4z M360.5,43.4c0,9.5,1.7,15.3,9.3,15.3c7.6,0,9.3-5.7,9.3-15.3c0-9.5-1.7-15.3-9.3-15.3
			C362.2,28.1,360.5,33.8,360.5,43.4z"/>
		<path class="st1" d="M414.5,63.5l-17.5-28.6l0.2,28.6h-5.9V23.3h5.5l17.5,28.6L414,23.3h5.9v40.2H414.5z"/>
		<path class="st1" d="M454,63.5h-6V23.3h12.9c10.3,0,13.9,6,13.9,12.6c0,6.6-3.6,12.5-13.9,12.5H454V63.5z M454,43h7.2
			c6,0,7.1-4.1,7.1-7.1c0-3-1.1-7.1-7.1-7.1H454V43z"/>
		<path class="st1" d="M485,63.5h-6V23.3h13.1c10.4,0,13.7,4.7,13.7,11.9c0,5.2-1.6,9-6.5,10.7l8.4,17.5h-7l-7.3-16.3H485V63.5z
			 M485,41.7h7.9c5.6,0,6.3-3.2,6.3-6.4c0-3.3-0.8-6.4-6.3-6.4H485V41.7z"/>
		<path class="st1" d="M535,45.4h-16.7V58h18.4v5.5h-24.4V23.3h24.4v5.5h-18.4v11.1H535V45.4z"/>
		<path class="st1" d="M548.6,63.5h-6V23.3h12.9c10.3,0,13.9,6,13.9,12.6c0,6.6-3.6,12.5-13.9,12.5h-6.9V63.5z M548.6,43h7.2
			c6,0,7.1-4.1,7.1-7.1c0-3-1.1-7.1-7.1-7.1h-7.2V43z"/>
	</g>
	<g>
		<path class="st2" d="M85.1,77c0,3.5-2.8,6.3-6.3,6.3H14.9c-3.5,0-6.3-2.8-6.3-6.3V13.2c0-3.5,2.8-6.3,6.3-6.3h63.8
			c3.5,0,6.3,2.8,6.3,6.3V77z M48.5,24L48.5,24c3,0,5,2.2,5,5.2c0,3-2,5.2-5,5.2H42V24H48.5 M53.8,56.5h8l-7.9-17
			c3.4-1.4,6.5-4.8,6.5-10.3c0-6.6-4.3-12.1-11.5-12.1H35.1v39.4H42V40.8h5L53.8,56.5 M33.6,62.8c-2.3,0-4.2,1.8-4.2,4.1
			c0,2.2,1.9,4.1,4.2,4.1c2.3,0,4.2-1.8,4.2-4.1C37.8,64.6,35.9,62.8,33.6,62.8z M48,62.8c-2.3,0-4.2,1.8-4.2,4.1
			c0,2.2,1.9,4.1,4.2,4.1c2.3,0,4.2-1.8,4.2-4.1C52.2,64.6,50.4,62.8,48,62.8z M62.4,70.9c2.3,0,4.2-1.8,4.2-4.1
			c0-2.2-1.9-4.1-4.2-4.1c-2.3,0-4.2,1.8-4.2,4.1C58.2,69.1,60.1,70.9,62.4,70.9z"/>
	</g>
</g>
</svg>
